<?xml version="1.0" encoding="utf-8"?>
<!-- Generator: Adobe Illustrator 25.0.1, SVG Export Plug-In . SVG Version: 6.00 Build 0)  -->
<svg version="1.0" id="katman_1" xmlns="http://www.w3.org/2000/svg" xmlns:xlink="http://www.w3.org/1999/xlink" x="0px" y="0px"
	 viewBox="26 57 235 74" style="enable-background:new 0 0 284.5 186;" xml:space="preserve">
<style type="text/css">
	.st0{fill:#FFE644;}
	.st1{fill:#EC7463;}
	.st2{fill:#009ECB;}
	.st3{fill:#4D68AE;}
	.st4{fill:#57A759;}
	.st5{fill:#8E5298;}
	.st6{fill:#26293B;}
</style>
<g id="LOGO" transform="translate(-9.258 -9.623)">
	<path id="Path_1" class="st0" d="M58.1,118.1V67l-22.3,37.7L58.1,118.1z"/>
	<path id="Path_2" class="st1" d="M58.1,67l22.3,37.7l-22.3,13.3V67z"/>
	<path id="Path_3" class="st2" d="M35.8,107.6l22.3,13.3v17.2"/>
	<path id="Path_4" class="st3" d="M80.4,107.6l-22.3,13.3v17.2"/>
	<path id="Path_5" class="st4" d="M58.1,91.4l-22.3,13.3l22.3,13.3V91.4z"/>
	<path id="Path_6" class="st5" d="M58.1,91.4l22.3,13.3l-22.3,13.3V91.4z"/>
	<g id="Group_1" transform="translate(68.897 23.809)">
		<path id="Path_7" class="st6" d="M26.6,69.4c0-1.3,0.3-2.6,0.9-3.8c0.6-1.1,1.4-2,2.5-2.6c1.1-0.6,2.4-0.9,3.6-0.9
			c1.2,0,2.5,0.3,3.6,0.9c1,0.6,1.9,1.5,2.4,2.6c0.6,1.2,0.9,2.5,0.9,3.8v1.1H30.3c0,0.8,0.4,1.6,1,2.1c0.7,0.6,1.5,0.8,2.4,0.8
			c0.7,0,1.3-0.1,1.9-0.5c0.7-0.4,1.4-0.9,1.9-1.6l2.3,2.4c-0.8,0.9-1.7,1.6-2.7,2.1c-1.1,0.5-2.2,0.7-3.4,0.7
			c-1.3,0-2.6-0.3-3.7-0.9c-1.1-0.6-1.9-1.5-2.5-2.5C26.8,72.1,26.6,70.8,26.6,69.4z M36.7,67.9c-0.1-0.7-0.4-1.4-1-1.9
			c-1.3-1-3-1-4.3,0c-0.6,0.5-0.9,1.2-1.1,1.9H36.7z"/>
		<path id="Path_8" class="st6" d="M52,65.9v5.5c0,0.4,0.1,0.7,0.3,1c0.3,0.2,0.7,0.3,1.1,0.3h3.1v3.6H53c-1.3,0.1-2.5-0.3-3.5-1.1
			c-0.9-0.8-1.3-1.9-1.2-3.1v-6.3h-3.4v-3.3h3.4v-3.5H52v3.5h5.4v3.3L52,65.9z"/>
		<path id="Path_9" class="st6" d="M62.4,57.4h3.7v6.4h0.1c1.7-1.8,4.5-2.2,6.6-0.9c0.8,0.5,1.4,1.2,1.8,2c0.4,1,0.7,2,0.6,3v8.3
			h-3.7v-7.8c0-0.8-0.2-1.5-0.7-2.1c-0.5-0.5-1.2-0.8-1.9-0.8c-0.8,0-1.5,0.2-2.1,0.8c-0.5,0.6-0.8,1.3-0.8,2.1v7.8h-3.7L62.4,57.4z
			"/>
		<path id="Path_10" class="st6" d="M79.3,69.4c0-1.3,0.3-2.6,0.9-3.8c0.6-1.1,1.4-2,2.5-2.6c1.1-0.6,2.4-0.9,3.6-0.9
			c1.2,0,2.5,0.3,3.6,0.9c1,0.6,1.9,1.5,2.4,2.6c0.6,1.2,0.9,2.5,0.9,3.8v1.1H83c0,0.8,0.4,1.6,1,2.1c0.7,0.6,1.5,0.8,2.4,0.8
			c0.7,0,1.3-0.1,1.9-0.5c0.7-0.4,1.4-0.9,1.9-1.6l2.3,2.4c-0.8,0.9-1.7,1.6-2.7,2.1c-1.1,0.5-2.2,0.8-3.4,0.7
			c-1.3,0-2.6-0.3-3.7-0.9c-1.1-0.6-1.9-1.5-2.5-2.5C79.6,72.1,79.3,70.8,79.3,69.4z M89.4,67.9c-0.1-0.7-0.4-1.4-1-1.9
			c-1.3-1-3-1-4.3,0c-0.6,0.5-0.9,1.2-1.1,1.9H89.4z"/>
		<path id="Path_11" class="st6" d="M98.5,62.6h3.5v1.3h0.1c1-1.1,2.5-1.7,4-1.7c1.1,0,2.2,0.3,3.1,1c0.9,0.7,1.5,1.7,1.8,2.9
			l-3.5,1.1c-0.3-1.1-1.3-1.8-2.5-1.7c-0.8-0.1-1.6,0.2-2.1,0.8c-0.5,0.6-0.8,1.4-0.7,2.2v7.7h-3.7L98.5,62.6z"/>
		<path id="Path_12" class="st6" d="M114.5,69.4c0-1.3,0.3-2.6,0.9-3.8c0.6-1.1,1.4-2,2.5-2.6c1.1-0.6,2.4-0.9,3.6-0.9
			c1.2,0,2.5,0.3,3.6,0.9c1,0.6,1.9,1.5,2.4,2.6c0.6,1.2,0.9,2.5,0.9,3.8v1.1h-10.2c0,0.8,0.4,1.6,1,2.1c0.7,0.6,1.5,0.8,2.4,0.8
			c0.7,0,1.3-0.1,1.9-0.5c0.7-0.4,1.4-0.9,1.9-1.6l2.3,2.4c-0.8,0.9-1.7,1.6-2.7,2.1c-1.1,0.5-2.2,0.8-3.4,0.7
			c-1.3,0-2.6-0.3-3.7-0.9c-1.1-0.6-1.9-1.5-2.5-2.5C114.7,72.1,114.4,70.8,114.5,69.4z M124.6,67.9c-0.1-0.7-0.4-1.4-1-1.9
			c-1.3-1-3-1-4.3,0c-0.6,0.5-0.9,1.2-1.1,1.9H124.6z"/>
		<path id="Path_13" class="st6" d="M132.8,71.6v-9h3.7v8.2c-0.2,1.2,0.6,2.3,1.8,2.5c0.2,0,0.4,0,0.6,0c0.7,0,1.3-0.2,1.8-0.7
			c0.5-0.5,0.7-1.2,0.7-1.8v-8.2h3.7v13.7h-3.5v-1.2h-0.1c-0.4,0.5-1,0.9-1.6,1.2c-2,0.8-4.2,0.5-5.8-0.9
			C133.2,74.3,132.7,73,132.8,71.6z"/>
		<path id="Path_14" class="st6" d="M149.2,62.6h3.3v1.2h0.1c0.3-0.4,0.7-0.8,1.1-1.1c0.5-0.3,1-0.4,1.5-0.4c1.1,0,2.1,0.6,2.6,1.5
			h0.1c0.6-1,1.7-1.6,2.8-1.5c0.9,0,1.8,0.4,2.4,1.1c0.6,0.8,1,1.8,0.9,2.8v10.1h-3.4v-9.5c0-0.3-0.1-0.7-0.3-0.9
			c-0.2-0.2-0.6-0.3-0.9-0.3c-0.3,0-0.6,0.1-0.9,0.4c-0.2,0.3-0.3,0.6-0.3,0.9v9.4H155v-9.5c0-0.3-0.1-0.6-0.3-0.9
			c-0.2-0.2-0.5-0.3-0.8-0.3c-0.3,0-0.7,0.1-0.9,0.3c-0.2,0.3-0.4,0.6-0.3,0.9v9.4h-3.4L149.2,62.6z"/>
		<path id="Path_15" class="st6" d="M30.7,94.7h-3.6v-3.3h3.6v-2c-0.1-1.1,0.4-2.1,1.2-2.9c0.9-0.7,2.1-1.1,3.3-1h4v3.3h-3.5
			c-0.3,0-0.6,0.1-0.8,0.3c-0.2,0.2-0.3,0.5-0.3,0.8v1.6H40v3.3h-5.5v8.9h-3.8L30.7,94.7z"/>
		<path id="Path_16" class="st6" d="M44.2,96.7c0-1.3,0.3-2.6,0.9-3.8c0.6-1.1,1.4-2,2.5-2.6c2.3-1.2,5-1.2,7.3,0
			c1,0.6,1.9,1.5,2.5,2.6c1.2,2.4,1.2,5.2,0,7.5c-0.6,1.1-1.4,2-2.5,2.6c-2.3,1.2-5,1.2-7.3,0c-1.1-0.6-1.9-1.5-2.5-2.6
			C44.4,99.3,44.1,98,44.2,96.7z M54.4,96.7c0.1-1-0.2-2-0.9-2.8c-0.6-0.7-1.5-1.1-2.4-1c-0.9,0-1.8,0.3-2.4,1
			c-0.6,0.8-0.9,1.8-0.9,2.8c-0.1,1,0.2,2,0.9,2.8c1.3,1.3,3.4,1.4,4.8,0.1c0,0,0.1-0.1,0.1-0.1C54.2,98.7,54.5,97.7,54.4,96.7z"/>
		<path id="Path_17" class="st6" d="M62.5,98.9v-9h3.7v8.2c-0.2,1.2,0.7,2.3,1.9,2.5c0.2,0,0.4,0,0.6,0c0.7,0,1.3-0.2,1.8-0.7
			c0.5-0.5,0.7-1.2,0.7-1.8v-8.2h3.7v13.7h-3.5v-1.2h-0.1c-0.4,0.5-1,0.9-1.6,1.2c-2.3,1.3-5.3,0.4-6.6-1.9
			C62.6,100.8,62.4,99.8,62.5,98.9L62.5,98.9z"/>
		<path id="Path_18" class="st6" d="M80,89.9h3.7v1.3h0.1c0.5-0.5,1.1-0.9,1.8-1.3c0.7-0.3,1.4-0.4,2.2-0.4c0.9,0,1.7,0.2,2.5,0.6
			c0.8,0.5,1.5,1.1,1.9,1.9c0.5,1,0.8,2.1,0.7,3.2v8.3h-3.7v-7.8c0-0.8-0.2-1.5-0.7-2.1c-0.5-0.6-1.2-0.8-1.9-0.8
			c-0.8,0-1.5,0.2-2.1,0.8c-0.5,0.6-0.8,1.3-0.8,2.1v7.8H80L80,89.9z"/>
		<path id="Path_19" class="st6" d="M96.6,96.7c0-1.3,0.3-2.6,0.8-3.7c0.5-1.1,1.3-2,2.2-2.6c1-0.6,2.1-0.9,3.3-0.9
			c1.3-0.1,2.6,0.4,3.6,1.2h0.1v-6h3.7v18.9h-3.4v-1.2h-0.1c-1,1.1-2.5,1.6-4,1.6c-1.1,0-2.3-0.3-3.2-0.9c-1-0.6-1.7-1.5-2.2-2.5
			C96.9,99.3,96.6,98,96.6,96.7z M106.6,97.6v-1.8c0-0.5-0.1-1-0.4-1.4c-0.3-0.5-0.7-0.8-1.2-1.1c-0.5-0.3-1.1-0.4-1.6-0.4
			c-0.9,0-1.7,0.4-2.3,1c-1.1,1.7-1.1,3.9,0,5.6c0.5,0.7,1.4,1.1,2.2,1.1c0.9,0,1.7-0.3,2.3-0.9C106.3,99.2,106.6,98.4,106.6,97.6
			L106.6,97.6z"/>
		<path id="Path_20" class="st6" d="M115.3,99.9c-0.1-1.1,0.4-2.2,1.3-3c1.3-0.9,2.8-1.4,4.4-1.6c0.8-0.1,1.5-0.3,2.2-0.6
			c0.3-0.2,0.6-0.5,0.6-0.9c0-0.4-0.2-0.8-0.6-1c-0.5-0.3-1-0.4-1.6-0.4c-0.7,0-1.4,0.2-1.9,0.7c-0.5,0.5-0.9,1.1-1,1.8l-3.4-0.8
			c0.2-0.9,0.6-1.8,1.2-2.5c0.6-0.7,1.4-1.3,2.3-1.7c0.9-0.4,2-0.6,3-0.6c1.5-0.1,3.1,0.4,4.2,1.5c1.1,1,1.6,2.5,1.6,3.9v8.7h-3.3
			V102h-0.1c-0.4,0.6-1,1.1-1.7,1.4c-0.8,0.3-1.6,0.5-2.4,0.5c-0.8,0-1.7-0.2-2.4-0.5c-0.7-0.3-1.3-0.8-1.7-1.4
			C115.5,101.3,115.3,100.6,115.3,99.9z M123.9,98.5v-1.6h-0.1c-0.2,0.3-0.5,0.5-0.8,0.6c-0.6,0.2-1.1,0.4-1.7,0.5
			c-0.7,0.1-1.4,0.3-2,0.7c-0.3,0.2-0.6,0.6-0.5,1c0,0.4,0.2,0.7,0.5,0.9c0.4,0.2,0.9,0.3,1.4,0.3c0.5,0,1.1-0.1,1.6-0.3
			c0.5-0.2,0.9-0.5,1.2-0.9C123.7,99.3,123.9,98.9,123.9,98.5L123.9,98.5z"/>
		<path id="Path_21" class="st6" d="M139.9,93.2v5.5c0,0.4,0.1,0.7,0.3,1c0.3,0.2,0.7,0.3,1.1,0.3h3.1v3.6h-3.5
			c-1.3,0.1-2.5-0.3-3.5-1.1c-0.9-0.8-1.3-1.9-1.2-3.1v-6.3h-3.4v-3.3h3.4v-3.5h3.7v3.5h5.4v3.3H139.9z"/>
		<path id="Path_22" class="st6" d="M163.3,100.2v3.4h-13.5v-3.4h4.9v-6.9h-4.6v-3.4h8.3v10.3H163.3z M154.7,84.1h3.8v3.6h-3.8V84.1
			z"/>
		<path id="Path_23" class="st6" d="M167.2,96.7c0-1.3,0.3-2.6,0.9-3.8c0.6-1.1,1.4-2,2.5-2.6c2.3-1.2,5-1.2,7.3,0
			c1,0.6,1.9,1.5,2.5,2.6c1.2,2.4,1.2,5.2,0,7.5c-0.6,1.1-1.4,2-2.5,2.6c-2.3,1.2-5,1.2-7.3,0c-1-0.6-1.9-1.5-2.5-2.6
			C167.5,99.3,167.2,98,167.2,96.7z M177.5,96.7c0.1-1-0.2-2-0.9-2.8c-0.6-0.7-1.5-1.1-2.4-1c-0.9,0-1.8,0.3-2.4,1
			c-0.6,0.8-0.9,1.8-0.9,2.8c-0.1,1,0.2,2,0.9,2.8c1.3,1.3,3.4,1.4,4.8,0.1c0,0,0.1-0.1,0.1-0.1C177.2,98.7,177.5,97.7,177.5,96.7z"
			/>
		<path id="Path_24" class="st6" d="M185.4,89.9h3.7v1.3h0.1c0.5-0.5,1.1-0.9,1.8-1.3c0.7-0.3,1.4-0.4,2.2-0.4
			c0.9,0,1.7,0.2,2.5,0.6c0.8,0.5,1.5,1.1,1.9,1.9c0.5,1,0.8,2.1,0.7,3.2v8.3h-3.7v-7.8c0-0.8-0.2-1.5-0.7-2.1
			c-0.5-0.6-1.2-0.8-1.9-0.8c-0.8,0-1.5,0.2-2.1,0.8c-0.5,0.6-0.8,1.3-0.8,2.1v7.8h-3.7L185.4,89.9z"/>
	</g>
</g>
</svg>
