<?xml version="1.0" encoding="utf-8"?>
<!-- Generator: Adobe Illustrator 25.0.1, SVG Export Plug-In . SVG Version: 6.00 Build 0)  -->
<svg version="1.0" id="katman_1" xmlns="http://www.w3.org/2000/svg" xmlns:xlink="http://www.w3.org/1999/xlink" x="0px" y="0px"
	 viewBox="70 160 760 226" style="enable-background:new 0 0 890 546;" xml:space="preserve">
<style type="text/css">
	.st0{fill:#0E0333;}
	.st1{fill-rule:evenodd;clip-rule:evenodd;fill:#15EBB7;}
	.st2{fill-rule:evenodd;clip-rule:evenodd;fill:#0E0333;}
</style>
<path class="st0" d="M338.7,280.3h39.1c0,4-0.2,7.7-0.5,11c-0.3,3.3-1,6.3-2,9.1c-1.4,4-3.3,7.5-5.7,10.6c-2.4,3-5.3,5.6-8.5,7.6
	c-3.2,2-6.8,3.6-10.7,4.6c-3.9,1.1-8,1.6-12.3,1.6c-5.9,0-11.3-1-16.2-2.9c-4.8-1.9-9-4.7-12.5-8.1c-3.5-3.6-6.2-7.8-8.1-12.7
	c-1.9-5-2.9-10.4-2.9-16.4c0-5.9,0.9-11.3,2.8-16.2c1.9-5,4.7-9.2,8.1-12.7c3.6-3.5,7.8-6.2,12.8-8.1s10.5-2.9,16.6-2.9
	c7.9,0,14.8,1.7,20.8,5.1c6,3.4,10.7,8.7,14.2,15.9l-18.7,7.7c-1.7-4.2-4-7.1-6.8-8.9c-2.7-1.8-5.9-2.7-9.4-2.7
	c-2.9,0-5.6,0.6-8,1.7c-2.4,1.1-4.5,2.6-6.2,4.7c-1.7,2-3,4.5-4,7.3c-0.9,2.9-1.4,6.1-1.4,9.6c0,3.2,0.4,6.2,1.2,8.9
	c0.9,2.7,2.1,5.1,3.8,7.1c1.7,2,3.8,3.6,6.2,4.7c2.5,1.1,5.4,1.6,8.6,1.6c1.9,0,3.8-0.2,5.6-0.6c1.8-0.5,3.4-1.2,4.8-2.1
	c1.5-1,2.7-2.3,3.6-3.8s1.6-3.4,1.9-5.6h-16.2V280.3z M475,262.8v62h-21v-62h-17v-18h55v18H475z M565,272.2
	c-4.6-5.6-10.2-8.4-16.9-8.4c-3,0-5.7,0.5-8.3,1.6c-2.5,1.1-4.6,2.6-6.5,4.4c-1.8,1.8-3.3,4-4.3,6.6c-1,2.6-1.5,5.3-1.5,8.3
	s0.5,5.8,1.5,8.4c1.1,2.6,2.5,4.8,4.3,6.7c1.9,1.9,4.1,3.4,6.6,4.4c2.5,1.1,5.2,1.6,8.1,1.6c6.3,0,12-2.7,17-8.1v23.4l-2,0.7
	c-3,1.1-5.8,1.8-8.5,2.3c-2.6,0.5-5.2,0.8-7.8,0.8c-5.2,0-10.3-1-15.1-2.9c-4.8-2-9-4.8-12.7-8.4c-3.6-3.6-6.6-7.9-8.8-12.8
	c-2.2-5-3.3-10.4-3.3-16.2s1.1-11.2,3.2-16c2.2-4.9,5.1-9.1,8.8-12.6c3.7-3.6,8-6.3,12.8-8.3c4.8-2,9.9-3,15.2-3c3,0,6,0.3,8.9,1
	c3,0.6,6.1,1.6,9.3,2.9V272.2z M606.2,284.8c0,3,0.6,5.8,1.7,8.4c1.1,2.6,2.7,4.8,4.6,6.7c1.9,1.9,4.2,3.4,6.8,4.4
	c2.6,1,5.4,1.5,8.3,1.5c2.9,0,5.6-0.5,8.2-1.5c2.6-1.1,4.9-2.6,6.9-4.4c2-1.9,3.6-4.1,4.7-6.7c1.1-2.6,1.7-5.3,1.7-8.4
	c0-3.1-0.6-5.8-1.7-8.4c-1.1-2.6-2.7-4.8-4.7-6.7c-1.9-1.9-4.2-3.3-6.9-4.3c-2.6-1.1-5.3-1.6-8.2-1.6c-2.9,0-5.6,0.5-8.3,1.6
	c-2.6,1-4.8,2.5-6.8,4.3c-1.9,1.9-3.5,4.1-4.6,6.7C606.8,279,606.2,281.8,606.2,284.8z M585.6,284.8c0-5.6,1-10.9,3.1-15.7
	c2.1-4.9,5-9.2,8.7-12.8c3.7-3.6,8.1-6.5,13.2-8.5c5.2-2.1,10.9-3.1,17-3.1c6.1,0,11.8,1,16.9,3.1c5.2,2,9.6,4.8,13.3,8.5
	c3.8,3.6,6.7,7.9,8.8,12.8c2.1,4.8,3.1,10.1,3.1,15.7c0,5.6-1,10.9-3.1,15.8c-2.1,4.8-5,9.1-8.8,12.7c-3.7,3.6-8.1,6.5-13.3,8.6
	c-5.2,2-10.8,3-16.9,3c-6.2,0-11.9-1-17-3c-5.1-2.1-9.5-4.9-13.2-8.6c-3.7-3.6-6.6-7.9-8.7-12.7
	C586.6,295.7,585.6,290.5,585.6,284.8z M711,244.8v80h-21v-80H711z M417,244.8v80h-21v-80H417z M733,324.8v-80h20l39,48.9v-48.9h21
	v80h-20.2L754,275.9v48.9H733z"/>
<path class="st1" d="M217.9,249.4c7,9.8,10.7,21.6,10.6,33.5c0,11.7-3.8,23.5-10.6,33l14.5,11c9.2-12.7,14.3-28.3,14.3-44
	c0.1-16.6-5.4-32.9-15.4-46.1l-8.3,7.5L217.9,249.4z"/>
<path class="st2" d="M245.4,336.8l-48.8-37.1c3.5-4.6,5.5-10.1,5.8-15.9c0.2-5.8-1.3-11.4-4.4-16.3l23.4-21.1l24.4-22.9
	c1.6-1.5,1.7-4.1,0.1-5.7l-3.4-3.4c-17.4-17.6-40.8-27.9-65.5-28.7l0.1-13.4c0.1-0.9,0-1.8-0.2-2.7c-0.3-0.9-0.7-1.7-1.3-2.4
	c-0.6-0.7-1.3-1.2-2.2-1.6c-0.8-0.4-1.7-0.6-2.6-0.6c-0.9,0-1.8,0.2-2.6,0.6c-0.8,0.4-1.6,0.9-2.2,1.6c-0.6,0.7-1.1,1.5-1.3,2.3
	c-0.3,0.9-0.4,1.8-0.2,2.7l-0.1,13.8c-5.9,0.6-11.7,1.7-17.4,3.4l0.1-17.2c0.1-0.9,0-1.8-0.2-2.7c-0.3-0.9-0.7-1.7-1.3-2.4
	s-1.3-1.2-2.2-1.6c-0.8-0.4-1.7-0.6-2.6-0.6c-0.9,0-1.8,0.2-2.6,0.6c-0.8,0.4-1.6,0.9-2.2,1.6c-0.6,0.7-1.1,1.5-1.3,2.3
	c-0.3,0.9-0.4,1.8-0.2,2.7l-0.3,22c-20.1,9-36.6,24.6-46.6,44.2c-10,19.6-13.2,42.1-8.8,63.7c4.4,21.6,16,41.1,32.9,55.2
	c16.9,14.1,38.2,22.1,60.1,22.5l71,0.3c2.2,0,4-1.8,4-4v-35.9C246.9,338.8,246.4,337.6,245.4,336.8z M173.3,362.4
	c-17.5-0.1-34.5-6-48.3-16.6c-13.8-10.7-23.7-25.8-28.2-42.7c-4.5-16.9-3.2-34.9,3.5-51c6.8-16.1,18.6-29.6,33.8-38.4l-0.1,26.2
	c-0.1,0.9,0,1.8,0.2,2.7c0.3,0.9,0.7,1.7,1.3,2.4c0.6,0.7,1.3,1.2,2.2,1.6c0.8,0.4,1.7,0.6,2.6,0.6c0.9,0,1.8-0.2,2.6-0.6
	c0.8-0.4,1.6-0.9,2.2-1.6c0.6-0.7,1.1-1.5,1.3-2.3c0.3-0.9,0.4-1.8,0.2-2.7l0.1-32.1c8.7-3.2,18-4.7,27.3-4.7
	c17.2,0,33.9,5.7,47.5,16c1,0.8,1.1,2.2,0.2,3.1l-37.2,34.1c-3.4-1.4-7.1-2.2-10.7-2.2c-4.1,0-8.1,0.8-11.9,2.5
	c-3.8,1.7-7.1,4.2-9.7,7.3c-2.7,3.1-4.7,6.8-5.9,10.6c-1.2,4-1.5,8.1-0.9,12.1c0.6,4.1,2,8,4.2,11.4c2.2,3.5,5.2,6.4,8.5,8.7
	c3.5,2.2,7.4,3.7,11.4,4.3c4.1,0.6,8.2,0.3,12.1-0.9l47.5,36.1c0.5,0.4,0.8,1,0.8,1.6l-0.1,12.7c0,1.1-0.9,2-2,2L173.3,362.4z
	 M184.9,282.8c0,2.2-0.7,4.4-1.9,6.3c-1.3,1.9-3,3.3-5.1,4.2c-2.1,0.9-4.4,1.1-6.5,0.6c-2.1-0.5-4.2-1.5-5.8-3.1
	c-1.6-1.6-2.7-3.6-3.1-5.8c-0.4-2.2-0.2-4.5,0.7-6.5c0.9-2.1,2.3-3.8,4.2-5.1c1.9-1.2,4.1-1.9,6.3-1.9c3,0,5.9,1.2,7.9,3.4
	C183.8,276.9,184.9,279.7,184.9,282.8z"/>
</svg>
