<svg  viewBox="30 347 980 210" fill="none" xmlns="http://www.w3.org/2000/svg">
<rect />
<path d="M138.171 350C138.559 350.082 138.951 350.143 139.345 350.183C164.321 351.433 185.859 360.811 204.054 377.946C204.47 378.362 204.92 378.779 205.257 379.091L191.246 393.114C190.667 392.577 189.938 391.914 189.218 391.24C180.752 383.388 170.692 377.458 159.726 373.855C154.98 372.312 150.103 371.206 145.156 370.551C139.972 369.904 134.739 369.744 129.525 370.072C123.883 370.396 118.297 371.363 112.874 372.955C108.238 374.27 103.732 376.008 99.4122 378.146C93.483 381.028 87.9577 384.676 82.9779 388.998C81.0547 390.665 79.1565 392.414 77.3582 394.235C73.7724 397.895 70.5647 401.908 67.784 406.212C65.1116 410.307 62.8221 414.64 60.9447 419.156C58.5398 424.856 56.8345 430.826 55.8662 436.937C55.4494 439.527 55.1632 442.137 55.0087 444.756C54.8047 447.879 54.763 451.011 54.8838 454.138C55.143 459.55 55.9732 464.919 57.3606 470.157C61.5539 486.26 70.654 500.656 83.3968 511.346C96.1396 522.037 111.893 528.49 128.468 529.81C132.318 530.09 136.182 530.118 140.036 529.893C146.278 529.525 152.451 528.395 158.418 526.527C162.517 525.269 166.506 523.677 170.345 521.765C183.01 515.47 193.792 505.943 201.602 494.145C205.986 487.539 209.354 480.313 211.593 472.706C211.797 472.015 212.009 471.319 212.238 470.448C209.591 470.419 207.11 470.448 204.629 470.448H114.785L135.145 450.072H234.675V451.476C234.126 475.827 225.996 497.303 210.04 515.704C195.8 532.11 177.912 542.608 156.758 547.516C151.205 548.761 145.557 549.536 139.874 549.832C135.118 550.11 130.348 550.008 125.608 549.528C103.796 547.366 84.5888 539.113 68.2419 524.465C52.3487 510.238 42.1293 492.595 37.363 471.802C35.9983 465.883 35.223 459.844 35.0485 453.772C34.2867 427.28 42.4914 403.917 59.904 383.966C73.9656 367.843 91.6113 357.499 112.425 352.587C117.52 351.413 122.699 350.636 127.914 350.262C128.676 350.204 129.446 350.229 130.212 350.183C130.603 350.142 130.99 350.079 131.378 350H138.171Z" fill="#1B1657"/>
<path d="M752.985 549.97H733.083V470.503H673.09V549.787C672.303 550.016 654.578 550.083 653.217 549.878V430.488H673.04V449.827C673.872 450.052 731.13 450.135 733.066 449.923V390.661C733.341 390.608 733.619 390.572 733.899 390.553H752.481C752.647 390.553 752.81 390.582 752.976 390.599L752.985 549.97Z" fill="#1B1657"/>
<path d="M553.082 470.396H473.603L453.281 450.05H530.145C527.375 442.152 522.969 434.929 517.216 428.853C508 419.142 496.773 413.064 483.585 410.826C470.529 408.597 457.102 410.751 445.394 416.952C433.687 423.152 424.357 433.053 418.856 445.112C413.355 457.17 411.991 470.711 414.978 483.626C417.964 496.54 425.133 508.105 435.369 516.519C447.253 526.242 460.974 530.821 476.292 530.121C491.611 529.421 504.699 523.493 515.663 512.969L529.463 526.784C509.769 547.501 472.367 558.808 437.758 541.44C398.45 521.651 382.615 473.721 402.375 434.373C410.522 418.169 423.946 405.23 440.432 397.691C456.917 390.153 475.479 388.466 493.051 392.908C533.425 403.215 553.81 439.614 553.082 470.396Z" fill="#1B1657"/>
<path d="M314.861 509.601L383.508 390.607H406.253C406.275 390.636 406.295 390.666 406.312 390.698C406.312 390.728 406.341 390.769 406.312 390.794C406.266 390.919 406.212 391.04 406.149 391.157L314.57 549.924H294.751V390.782C294.771 390.745 294.797 390.711 294.826 390.682C294.849 390.659 294.878 390.643 294.909 390.636C295.037 390.601 295.168 390.579 295.301 390.569H314.083C314.251 390.586 314.418 390.612 314.582 390.648V509.56L314.861 509.601Z" fill="#1B1657"/>
<path d="M593.165 549.92H573.238V409.992C571.881 409.917 570.595 409.967 569.313 409.958C568.031 409.95 566.649 409.958 565.317 409.958H549.636L538.351 390.599H672.989V409.946H593.165V549.92Z" fill="#1B1657"/>
<path d="M274.587 549.919H254.789V430.475H274.491L274.541 430.525C274.541 430.55 274.599 430.575 274.599 430.6C274.616 470.188 274.63 509.778 274.641 549.369C274.637 549.528 274.607 549.69 274.587 549.919Z" fill="#1B1657"/>
<path d="M264.703 390.553C267.32 390.573 269.823 391.63 271.664 393.493C273.504 395.356 274.532 397.873 274.522 400.493C274.512 403.112 273.466 405.622 271.611 407.471C269.756 409.32 267.245 410.358 264.628 410.358C262.01 410.358 259.499 409.32 257.644 407.471C255.79 405.622 254.743 403.112 254.733 400.493C254.723 397.873 255.751 395.356 257.591 393.493C259.432 391.63 261.935 390.573 264.553 390.553H264.703Z" fill="#1B1657"/>
<path d="M828.296 549.906H808.498V430.462H828.2L828.25 430.512C828.271 430.537 828.308 430.562 828.308 430.587C828.325 470.181 828.339 509.771 828.35 549.356C828.346 549.515 828.316 549.677 828.296 549.906Z" fill="#8293C6"/>
<path d="M818.418 390.54C821.036 390.56 823.54 391.618 825.381 393.482C827.222 395.346 828.25 397.864 828.24 400.485C828.229 403.105 827.182 405.615 825.327 407.465C823.471 409.314 820.959 410.353 818.341 410.353C815.722 410.353 813.21 409.314 811.355 407.465C809.5 405.615 808.452 403.105 808.442 400.485C808.432 397.864 809.46 395.346 811.301 393.482C813.141 391.618 815.645 390.56 818.264 390.54H818.418Z" fill="#8293C6"/>
<path d="M780.042 530.028C782.66 530.048 785.163 531.105 787.004 532.968C788.844 534.831 789.872 537.348 789.862 539.968C789.852 542.588 788.805 545.097 786.951 546.946C785.096 548.795 782.585 549.833 779.967 549.833C777.35 549.833 774.839 548.795 772.984 546.946C771.13 545.097 770.083 542.588 770.073 539.968C770.063 537.348 771.091 534.831 772.931 532.968C774.772 531.105 777.275 530.048 779.893 530.028H780.042Z" fill="#8293C6"/>
<path d="M928.838 390.477C884.867 390.477 849.222 426.15 849.222 470.156C849.222 514.162 884.867 549.836 928.838 549.836C972.808 549.836 1008.45 514.162 1008.45 470.156C1008.45 426.15 972.808 390.477 928.838 390.477ZM928.838 530.039C917.02 530.039 905.468 526.533 895.641 519.963C885.815 513.393 878.156 504.055 873.632 493.128C869.109 482.202 867.925 470.179 870.229 458.579C872.534 446.979 878.223 436.323 886.579 427.959C894.934 419.596 905.58 413.899 917.17 411.591C928.76 409.282 940.774 410.465 951.693 414.989C962.611 419.514 971.944 427.177 978.511 437.01C985.077 446.843 988.583 458.404 988.585 470.231C988.587 478.085 987.042 485.861 984.041 493.117C981.039 500.374 976.638 506.967 971.09 512.521C965.542 518.074 958.955 522.48 951.705 525.486C944.455 528.492 936.685 530.039 928.838 530.039Z" fill="#8293C6"/>
</svg>
